<!-- icon666.com - MILLIONS vector ICONS FREE --><svg id="Layer_1" viewBox="0 0 512 512" xmlns="http://www.w3.org/2000/svg" xmlns:xlink="http://www.w3.org/1999/xlink" data-name="Layer 1"><linearGradient id="linear-gradient" gradientUnits="userSpaceOnUse" x1="142.578" x2="463.138" y1="81.848" y2="402.408"><stop offset="0" stop-color="#1d1d1b"></stop><stop offset=".369" stop-color="#1d1d1b" stop-opacity=".856"></stop><stop offset=".75" stop-color="#1d1d1b" stop-opacity=".429"></stop><stop offset="1" stop-color="#1d1d1b" stop-opacity="0"></stop></linearGradient><circle cx="256" cy="256" fill="#009fe3" r="250"></circle><path d="m506 256a251.667 251.667 0 0 0 -3.228-40.166l-54.672-54.676c-1.963-1.945-6.018-3.663-14.264-3.663-.138 0-68.036.782-69.491 1.351-5.168 1.94-12.447 24.8-26.5 49.97l-52.725-52.716c-12.824-13.25-88.306-13.387-95.025 6.8l22.725 22.756c2.308 14.063 2.464 35.627.464 49.156l-73.77-73.769a5.283 5.283 0 0 0 -.586-.506c-6.266-4.607-74.542-5.625-77.1 2.363-6.577 6.419 42.113 93.421 73.294 134.73a226.358 226.358 0 0 0 19.781 22.756l174.622 174.614c102.187-31.4 176.475-126.519 176.475-239z" fill="url(#linear-gradient)" opacity=".49"></path><path d="m402.371 292.563c-17.283-18.086-19.611-20.634-9.334-36.807 11.322-16.588 33.69-41.885 46.327-62.13 7.406-11.863 10.372-21.161 10.372-27.014 0-.453 2.617-9.117-15.9-9.117-.138 0-68.036.782-69.491 1.351-7.724 2.9-20.166 52.53-52.9 86.781-12.255 12.824-19.639 10.5-22.818-10.468-2.652-17.489 6.659-65.569-2.419-77.664-8.69-14.617-89.165-15.473-96.113 5.4q15.558 4.389 19.361 11.143c5.692 9.637 6.733 47.741 3.112 64.832-6.187 36.245-29.948-1.126-31.462-3.039q-19.014-27.012-34.918-62.806c-3-6.753-5.306-11.057-7.26-12.493-6.266-4.607-74.542-5.625-77.1 2.363-6.577 6.419 42.113 93.421 73.294 134.73 51.426 67.414 103.9 66.913 117.892 66.521 20.076-.563 30.885-2.927 32.5-5.4 3.447-2.244 2.952-24.154 6.914-34.1 4.629-10.924 13.947-17.386 30.078 0 6.531 4.782 24.314 34.9 48.056 39.507 5.114.991 80.208 4.668 80.208-12.494.002-11.895-18.338-30.098-48.399-59.096z" fill="#fff"></path></svg>